<svg width="61" height="61" viewBox="0 0 61 61" fill="none" xmlns="http://www.w3.org/2000/svg">
<path d="M18.7113 26.3332C18.2507 27.6365 18 29.039 18 30.5C18 37.4035 23.5964 43 30.5 43C37.4035 43 43 37.4035 43 30.5C43 23.5964 37.4035 18 30.5 18C29.039 18 27.6365 18.2507 26.3332 18.7113" stroke="white" stroke-width="3.75" stroke-linecap="round"/>
<path d="M30.5 5.5V10.5" stroke="white" stroke-width="3.75" stroke-linecap="round"/>
<path d="M30.5 50.5V55.5" stroke="white" stroke-width="3.75" stroke-linecap="round"/>
<path d="M10.5 30.5H5.5" stroke="white" stroke-width="3.75" stroke-linecap="round"/>
<path d="M55.5 30.5H50.5" stroke="white" stroke-width="3.75" stroke-linecap="round"/>
<path d="M49.9445 11.0566L44.3895 16.1356" stroke="white" stroke-width="3.75" stroke-linecap="round"/>
<path d="M11.0554 11.0566L16.6104 16.1356" stroke="white" stroke-width="3.75" stroke-linecap="round"/>
<path d="M16.6109 44.3893L11.0553 49.9448" stroke="white" stroke-width="3.75" stroke-linecap="round"/>
<path d="M49.9445 49.9432L44.3895 44.3877" stroke="white" stroke-width="3.75" stroke-linecap="round"/>
</svg>
